<?xml version="1.0" encoding="iso-8859-1"?>
<!-- Generator: Adobe Illustrator 19.0.0, SVG Export Plug-In . SVG Version: 6.00 Build 0)  -->
<svg version="1.1" id="Layer_1" xmlns="http://www.w3.org/2000/svg" xmlns:xlink="http://www.w3.org/1999/xlink" x="0px" y="0px"
	 viewBox="0 0 512.001 512.001" style="enable-background:new 0 0 512.001 512.001;" xml:space="preserve">
<path style="fill:#BFBFBF;" d="M378.074,114.994l-31.94-7.593l31.058,47.834h32.681C409.872,137.26,395.569,119.155,378.074,114.994
	z"/>
<path style="fill:#D5D5D5;" d="M346.134,107.401L272.34,89.873L256,122.554l-16.34-32.681l-105.733,25.121
	c-17.495,4.161-31.798,22.267-31.798,40.241h275.064C377.191,135.681,363.901,116.018,346.134,107.401z"/>
<path style="fill:#D6BAED;" d="M256,40.852c-9.024,0-16.34,7.316-16.34,16.34v326.809h32.681V57.192
	C272.34,48.168,265.024,40.852,256,40.852z"/>
<polygon style="fill:#BFBFBF;" points="283.234,351.32 310.468,438.469 266.894,471.149 266.894,351.32 "/>
<polygon style="fill:#D5D5D5;" points="266.894,351.32 277.787,438.469 239.66,460.256 201.532,438.469 228.766,351.32 "/>
<path style="fill:#C397DB;" d="M310.468,438.469h-32.681v54.468l65.362-21.787C343.149,453.099,328.519,438.469,310.468,438.469z"/>
<path style="fill:#D6BAED;" d="M310.468,471.149l-70.809,21.787l-70.809-21.787c0-18.051,14.63-32.681,32.681-32.681h76.255
	C295.838,438.469,310.468,453.099,310.468,471.149z"/>
<path style="fill:#9E52B6;" d="M386.723,471.149h-32.681v32.681h32.681c9.02,0,16.34-7.321,16.34-16.34
	C403.064,478.47,395.743,471.149,386.723,471.149z"/>
<g>
	<path style="fill:#C397DB;" d="M163.404,285.958l-43.574,43.574h32.681c23.966,0,43.574-19.608,43.574-43.574H163.404z"/>
	<path style="fill:#C397DB;" d="M471.149,285.958l-43.574,43.574h32.681c23.966,0,43.574-19.608,43.574-43.574H471.149z"/>
</g>
<path style="fill:#B175C8;" d="M354.043,471.149H125.277c-9.02,0-16.34,7.32-16.34,16.34c0,9.02,7.321,16.34,16.34,16.34h228.766
	c9.02,0,16.34-7.321,16.34-16.34C370.383,478.47,363.062,471.149,354.043,471.149z"/>
<g>
	<path style="fill:#D6BAED;" d="M8.17,285.958h155.234c0,23.966-19.609,43.574-43.574,43.574H51.745
		C27.779,329.532,8.17,309.924,8.17,285.958z"/>
	<path style="fill:#D6BAED;" d="M315.915,285.958h155.234c0,23.966-19.609,43.574-43.574,43.574h-68.085
		C335.523,329.532,315.915,309.924,315.915,285.958z"/>
</g>
<circle style="fill:#C397DB;" cx="256" cy="24.511" r="16.34"/>
<path d="M510.492,281.24c-0.011-0.016-0.016-0.035-0.028-0.051l-92.526-128.732c-1.38-20.627-17.878-40.632-37.972-45.407
	l-99.455-23.634V57.192c0-6.273-2.372-12-6.261-16.34c3.89-4.34,6.261-10.068,6.261-16.34c0-13.516-10.995-24.511-24.511-24.511
	s-24.511,10.995-24.511,24.511c0,6.273,2.372,12,6.261,16.34c-3.89,4.34-6.261,10.068-6.261,16.34v26.224l-99.454,23.633
	c-20.094,4.775-36.592,24.78-37.972,45.407L1.536,281.19c-0.012,0.016-0.017,0.035-0.028,0.051C0.561,282.573,0,284.199,0,285.958
	c0,28.531,23.213,51.745,51.745,51.745h100.766c28.531,0,51.745-23.213,51.745-51.745c0-1.759-0.561-3.385-1.508-4.718
	c-0.011-0.016-0.016-0.035-0.028-0.051l-84.658-117.784h88.917c4.512,0,8.17-3.658,8.17-8.17s-3.658-8.17-8.17-8.17h-95.455
	c3.342-11.301,13.116-21.463,24.288-24.117l95.678-22.735v242.937h-2.677c-0.027,0-0.053,0-0.081,0h-10.86
	c-4.512,0-8.17,3.658-8.17,8.17c0,4.439,3.543,8.044,7.955,8.159l-22.279,71.291c-16.929,2.57-30.483,15.562-33.876,32.209h-36.226
	c-13.516,0-24.511,10.995-24.511,24.511s10.995,24.511,24.511,24.511h261.447c13.516,0,24.511-10.995,24.511-24.511
	s-10.995-24.511-24.511-24.511h-36.225c-3.393-16.648-16.947-29.638-33.876-32.209l-22.279-71.291
	c4.411-0.115,7.954-3.72,7.954-8.159c0-4.512-3.658-8.17-8.17-8.17h-10.864c-0.024,0-0.048,0-0.072,0h-2.682V100.212l95.678,22.735
	c11.173,2.655,20.946,12.816,24.288,24.117h-95.455c-4.512,0-8.17,3.658-8.17,8.17s3.658,8.17,8.17,8.17h88.917L309.281,281.19
	c-0.012,0.016-0.017,0.035-0.028,0.051c-0.946,1.333-1.507,2.959-1.507,4.717c0,28.531,23.213,51.745,51.745,51.745h100.766
	c28.531,0,51.745-23.213,51.745-51.745C512,284.199,511.439,282.573,510.492,281.24z M102.128,169.234l78.023,108.554H24.104
	L102.128,169.234z M152.511,321.362H51.745c-16.711,0-30.755-11.638-34.452-27.234h169.671
	C183.265,309.725,169.221,321.362,152.511,321.362z M256,16.341c4.506,0,8.17,3.665,8.17,8.17s-3.665,8.17-8.17,8.17
	s-8.17-3.665-8.17-8.17S251.494,16.341,256,16.341z M277.227,359.49l22.128,70.809h-86.71l22.128-70.809H277.227z M333.579,462.979
	H201.532c-4.512,0-8.17,3.658-8.17,8.17c0,4.512,3.658,8.17,8.17,8.17h185.191c4.506,0,8.17,3.665,8.17,8.17s-3.665,8.17-8.17,8.17
	H125.277c-4.506,0-8.17-3.665-8.17-8.17s3.665-8.17,8.17-8.17h43.574c4.512,0,8.17-3.658,8.17-8.17
	c0-13.509,10.985-24.5,24.491-24.511c0.048,0,108.927,0,108.927,0C321.13,446.646,330.208,453.473,333.579,462.979z M247.83,343.149
	V57.192c0-4.506,3.665-8.17,8.17-8.17s8.17,3.665,8.17,8.17v285.957H247.83z M487.896,277.788H331.849l78.023-108.554
	L487.896,277.788z M460.255,321.362H359.489c-16.711,0-30.755-11.638-34.452-27.234h169.671
	C491.01,309.725,476.966,321.362,460.255,321.362z"/>
<g>
</g>
<g>
</g>
<g>
</g>
<g>
</g>
<g>
</g>
<g>
</g>
<g>
</g>
<g>
</g>
<g>
</g>
<g>
</g>
<g>
</g>
<g>
</g>
<g>
</g>
<g>
</g>
<g>
</g>
</svg>
